<mxfile host="Electron" modified="2024-04-02T13:05:39.459Z" agent="Mozilla/5.0 (Windows NT 10.0; Win64; x64) AppleWebKit/537.36 (KHTML, like Gecko) draw.io/24.1.0 Chrome/120.0.6099.109 Electron/28.1.0 Safari/537.36" etag="jRSU3p2w2JKgw8ooDa6o" version="24.1.0" type="device">
  <diagram name="PÃ¡gina-1" id="u9ut9IkHvwufZRDWq8Nq">
    <mxGraphModel dx="1290" dy="621" grid="1" gridSize="10" guides="1" tooltips="1" connect="1" arrows="1" fold="1" page="1" pageScale="1" pageWidth="827" pageHeight="1169" math="0" shadow="0">
      <root>
        <mxCell id="0" />
        <mxCell id="1" parent="0" />
        <mxCell id="4iBPiOj6tYyVNOmxaTcy-1" value="Inicio" style="ellipse;whiteSpace=wrap;html=1;" parent="1" vertex="1">
          <mxGeometry x="354" y="30" width="120" height="80" as="geometry" />
        </mxCell>
        <mxCell id="4iBPiOj6tYyVNOmxaTcy-2" value="" style="endArrow=classic;html=1;rounded=0;" parent="1" edge="1">
          <mxGeometry width="50" height="50" relative="1" as="geometry">
            <mxPoint x="410" y="110" as="sourcePoint" />
            <mxPoint x="410" y="190" as="targetPoint" />
          </mxGeometry>
        </mxCell>
        <mxCell id="4iBPiOj6tYyVNOmxaTcy-3" value="Leer n" style="shape=parallelogram;perimeter=parallelogramPerimeter;whiteSpace=wrap;html=1;fixedSize=1;" parent="1" vertex="1">
          <mxGeometry x="354" y="340" width="120" height="60" as="geometry" />
        </mxCell>
        <mxCell id="4iBPiOj6tYyVNOmxaTcy-4" value="" style="endArrow=classic;html=1;rounded=0;" parent="1" edge="1">
          <mxGeometry width="50" height="50" relative="1" as="geometry">
            <mxPoint x="410" y="250" as="sourcePoint" />
            <mxPoint x="410" y="340" as="targetPoint" />
          </mxGeometry>
        </mxCell>
        <mxCell id="4iBPiOj6tYyVNOmxaTcy-5" value="n=-1" style="rhombus;whiteSpace=wrap;html=1;" parent="1" vertex="1">
          <mxGeometry x="370" y="490" width="80" height="80" as="geometry" />
        </mxCell>
        <mxCell id="4iBPiOj6tYyVNOmxaTcy-6" value="" style="endArrow=classic;html=1;rounded=0;" parent="1" edge="1">
          <mxGeometry width="50" height="50" relative="1" as="geometry">
            <mxPoint x="409.5" y="400" as="sourcePoint" />
            <mxPoint x="409.5" y="490" as="targetPoint" />
          </mxGeometry>
        </mxCell>
        <mxCell id="4iBPiOj6tYyVNOmxaTcy-7" value="resultado = 0" style="rounded=0;whiteSpace=wrap;html=1;" parent="1" vertex="1">
          <mxGeometry x="345" y="190" width="130" height="60" as="geometry" />
        </mxCell>
        <mxCell id="4iBPiOj6tYyVNOmxaTcy-8" value="" style="endArrow=classic;html=1;rounded=0;" parent="1" edge="1">
          <mxGeometry width="50" height="50" relative="1" as="geometry">
            <mxPoint x="450" y="530" as="sourcePoint" />
            <mxPoint x="530" y="530" as="targetPoint" />
          </mxGeometry>
        </mxCell>
        <mxCell id="4iBPiOj6tYyVNOmxaTcy-9" value="" style="endArrow=classic;html=1;rounded=0;" parent="1" edge="1">
          <mxGeometry width="50" height="50" relative="1" as="geometry">
            <mxPoint x="409.5" y="570" as="sourcePoint" />
            <mxPoint x="409.5" y="660" as="targetPoint" />
          </mxGeometry>
        </mxCell>
        <mxCell id="4iBPiOj6tYyVNOmxaTcy-10" value="Fin" style="ellipse;whiteSpace=wrap;html=1;" parent="1" vertex="1">
          <mxGeometry x="350" y="810" width="120" height="80" as="geometry" />
        </mxCell>
        <mxCell id="4iBPiOj6tYyVNOmxaTcy-11" value="Mostrar resultado" style="shape=parallelogram;perimeter=parallelogramPerimeter;whiteSpace=wrap;html=1;fixedSize=1;" parent="1" vertex="1">
          <mxGeometry x="350" y="660" width="120" height="60" as="geometry" />
        </mxCell>
        <mxCell id="4iBPiOj6tYyVNOmxaTcy-12" value="" style="endArrow=classic;html=1;rounded=0;" parent="1" edge="1">
          <mxGeometry width="50" height="50" relative="1" as="geometry">
            <mxPoint x="409.5" y="720" as="sourcePoint" />
            <mxPoint x="409.5" y="810" as="targetPoint" />
          </mxGeometry>
        </mxCell>
        <mxCell id="4iBPiOj6tYyVNOmxaTcy-13" value="No" style="text;html=1;align=center;verticalAlign=middle;whiteSpace=wrap;rounded=0;" parent="1" vertex="1">
          <mxGeometry x="440" y="500" width="60" height="30" as="geometry" />
        </mxCell>
        <mxCell id="4iBPiOj6tYyVNOmxaTcy-14" value="Si" style="text;html=1;align=center;verticalAlign=middle;whiteSpace=wrap;rounded=0;" parent="1" vertex="1">
          <mxGeometry x="400" y="570" width="60" height="30" as="geometry" />
        </mxCell>
        <mxCell id="4iBPiOj6tYyVNOmxaTcy-15" value="resultado= resultado + n" style="rounded=0;whiteSpace=wrap;html=1;" parent="1" vertex="1">
          <mxGeometry x="530" y="500" width="140" height="60" as="geometry" />
        </mxCell>
        <mxCell id="4iBPiOj6tYyVNOmxaTcy-16" value="" style="endArrow=classic;html=1;rounded=0;entryX=1;entryY=0.5;entryDx=0;entryDy=0;" parent="1" target="4iBPiOj6tYyVNOmxaTcy-3" edge="1">
          <mxGeometry width="50" height="50" relative="1" as="geometry">
            <mxPoint x="650" y="500" as="sourcePoint" />
            <mxPoint x="580" y="240" as="targetPoint" />
            <Array as="points">
              <mxPoint x="650" y="370" />
            </Array>
          </mxGeometry>
        </mxCell>
      </root>
    </mxGraphModel>
  </diagram>
</mxfile>
